<svg width="102" height="22" viewBox="0 0 102 22" fill="none" xmlns="http://www.w3.org/2000/svg">
  <path d="M0.145142 21L8.96514 1.4H12.5491L21.3971 21H17.5891L10.0011 3.332H11.4571L3.89714 21H0.145142ZM4.20514 16.464L5.18514 13.608H15.7691L16.7491 16.464H4.20514Z" fill="#ffffff"/>
  <path d="M26.4098 17.668L26.4938 13.272L34.3058 6.048H38.5058L31.8698 12.712L30.0218 14.252L26.4098 17.668ZM23.5538 21V0.223999H27.0538V21H23.5538ZM34.8378 21L29.3778 14.252L31.5898 11.452L39.0938 21H34.8378Z" fill="#ffffff"/>
  <path d="M50.2931 21V17.976L50.0971 17.332V12.04C50.0971 11.0133 49.7891 10.22 49.1731 9.66C48.5571 9.08133 47.6238 8.792 46.3731 8.792C45.5331 8.792 44.7025 8.92267 43.8811 9.184C43.0785 9.44533 42.3971 9.80933 41.8371 10.276L40.4651 7.728C41.2678 7.112 42.2198 6.65467 43.3211 6.356C44.4411 6.03867 45.5985 5.88 46.7931 5.88C48.9585 5.88 50.6291 6.40267 51.8051 7.448C52.9998 8.47467 53.5971 10.0707 53.5971 12.236V21H50.2931ZM45.5891 21.196C44.4691 21.196 43.4891 21.0093 42.6491 20.636C41.8091 20.244 41.1558 19.712 40.6891 19.04C40.2411 18.3493 40.0171 17.5747 40.0171 16.716C40.0171 15.876 40.2131 15.12 40.6051 14.448C41.0158 13.776 41.6785 13.244 42.5931 12.852C43.5078 12.46 44.7211 12.264 46.2331 12.264H50.5731V14.588H46.4851C45.2905 14.588 44.4878 14.784 44.0771 15.176C43.6665 15.5493 43.4611 16.016 43.4611 16.576C43.4611 17.2107 43.7131 17.7147 44.2171 18.088C44.7211 18.4613 45.4211 18.648 46.3171 18.648C47.1758 18.648 47.9411 18.452 48.6131 18.06C49.3038 17.668 49.7985 17.0893 50.0971 16.324L50.6851 18.424C50.3491 19.3013 49.7425 19.9827 48.8651 20.468C48.0065 20.9533 46.9145 21.196 45.5891 21.196Z" fill="#ffffff"/>
  <path d="M76.961 5.88C78.1556 5.88 79.2103 6.11333 80.125 6.58C81.0583 7.04667 81.7863 7.76533 82.309 8.736C82.8316 9.688 83.093 10.92 83.093 12.432V21H79.593V12.88C79.593 11.5547 79.3036 10.5653 78.725 9.912C78.1463 9.25867 77.3156 8.932 76.233 8.932C75.4676 8.932 74.7863 9.1 74.189 9.436C73.6103 9.772 73.153 10.2667 72.817 10.92C72.4996 11.5733 72.341 12.404 72.341 13.412V21H68.841V12.88C68.841 11.5547 68.5516 10.5653 67.973 9.912C67.3943 9.25867 66.5636 8.932 65.481 8.932C64.7156 8.932 64.0343 9.1 63.437 9.436C62.8583 9.772 62.401 10.2667 62.065 10.92C61.7476 11.5733 61.589 12.404 61.589 13.412V21H58.089V6.048H61.421V10.024L60.833 8.848C61.337 7.87733 62.065 7.14 63.017 6.636C63.9876 6.132 65.089 5.88 66.321 5.88C67.721 5.88 68.9343 6.22533 69.961 6.916C71.0063 7.60667 71.697 8.652 72.033 10.052L70.661 9.576C71.1463 8.456 71.949 7.56 73.069 6.888C74.189 6.216 75.4863 5.88 76.961 5.88Z" fill="#ffffff"/>
  <path d="M94.6209 21.196C92.9595 21.196 91.5035 20.8693 90.2529 20.216C89.0209 19.544 88.0595 18.6293 87.3689 17.472C86.6969 16.3147 86.3609 14.9987 86.3609 13.524C86.3609 12.0307 86.6875 10.7147 87.3409 9.576C88.0129 8.41867 88.9275 7.51333 90.0849 6.86C91.2609 6.20667 92.5955 5.88 94.0889 5.88C95.5449 5.88 96.8422 6.19733 97.9809 6.832C99.1195 7.46667 100.016 8.36267 100.669 9.52C101.322 10.6773 101.649 12.04 101.649 13.608C101.649 13.7573 101.64 13.9253 101.621 14.112C101.621 14.2987 101.612 14.476 101.593 14.644H89.1329V12.32H99.7449L98.3729 13.048C98.3915 12.1893 98.2142 11.4333 97.8409 10.78C97.4675 10.1267 96.9542 9.61333 96.3009 9.24C95.6662 8.86667 94.9289 8.68 94.0889 8.68C93.2302 8.68 92.4742 8.86667 91.8209 9.24C91.1862 9.61333 90.6822 10.136 90.3089 10.808C89.9542 11.4613 89.7769 12.236 89.7769 13.132V13.692C89.7769 14.588 89.9822 15.3813 90.3929 16.072C90.8035 16.7627 91.3822 17.2947 92.1289 17.668C92.8755 18.0413 93.7342 18.228 94.7049 18.228C95.5449 18.228 96.3009 18.0973 96.9729 17.836C97.6449 17.5747 98.2422 17.164 98.7649 16.604L100.641 18.76C99.9689 19.544 99.1195 20.1507 98.0929 20.58C97.0849 20.9907 95.9275 21.196 94.6209 21.196Z" fill="#ffffff"/>
</svg>
