<svg xmlns="http://www.w3.org/2000/svg" width="48" height="39" fill="none"><path fill="#fff" d="M15.443 38.106c17.584 0 27.2-14.568 27.2-27.2 0-.415-.008-.826-.027-1.237a19.454 19.454 0 0 0 4.77-4.95 19.07 19.07 0 0 1-5.49 1.505A9.596 9.596 0 0 0 46.098.936a19.163 19.163 0 0 1-6.07 2.32A9.553 9.553 0 0 0 33.05.236c-5.28 0-9.561 4.282-9.561 9.559 0 .75.084 1.48.247 2.18-7.944-.4-14.99-4.204-19.704-9.988a9.525 9.525 0 0 0-1.296 4.805 9.554 9.554 0 0 0 4.255 7.958 9.491 9.491 0 0 1-4.33-1.196c-.002.04-.002.08-.002.121 0 4.63 3.296 8.496 7.67 9.372a9.568 9.568 0 0 1-4.317.165 9.571 9.571 0 0 0 8.93 6.64A19.182 19.182 0 0 1 3.07 33.944c-.77 0-1.532-.044-2.28-.133a27.063 27.063 0 0 0 14.654 4.295Z"/></svg>
