<svg xmlns="http://www.w3.org/2000/svg" width="47" height="47" fill="none"><path fill="#fff" d="M23.621 4.271c6.213 0 6.99 0 9.514.194 6.407.195 9.319 3.301 9.513 9.514.194 2.524.194 3.106.194 9.32 0 6.212 0 6.989-.194 9.318-.194 6.213-3.3 9.32-9.514 9.514-2.523.194-3.106.194-9.513.194-6.213 0-6.99 0-9.32-.194-6.406-.194-9.318-3.3-9.513-9.514-.194-2.524-.194-3.106-.194-9.319 0-6.213 0-6.99.194-9.32.195-6.212 3.301-9.318 9.514-9.513 2.33-.194 3.106-.194 9.32-.194Zm0-4.271c-6.407 0-7.183 0-9.513.194C5.565.582.905 5.242.518 13.784c-.195 2.33-.195 3.107-.195 9.514 0 6.407 0 7.184.194 9.514.388 8.542 5.048 13.202 13.59 13.59 2.33.194 3.107.194 9.514.194 6.407 0 7.184 0 9.514-.194 8.542-.388 13.202-5.048 13.59-13.59.194-2.33.194-3.107.194-9.514 0-6.407 0-7.183-.194-9.513C46.337 5.242 41.677.582 33.135.195 30.805 0 30.028 0 23.62 0Zm0 11.26c-6.601 0-12.037 5.437-12.037 12.038S17.02 35.336 23.62 35.336c6.601 0 12.037-5.437 12.037-12.038s-5.436-12.037-12.037-12.037Zm0 19.804c-4.271 0-7.766-3.494-7.766-7.766 0-4.271 3.495-7.766 7.766-7.766s7.766 3.495 7.766 7.766c0 4.272-3.495 7.766-7.766 7.766Zm12.426-22.91c-1.553 0-2.718 1.165-2.718 2.719 0 1.553 1.165 2.718 2.718 2.718s2.718-1.165 2.718-2.718c0-1.554-1.165-2.719-2.718-2.719Z"/></svg>
