<svg xmlns="http://www.w3.org/2000/svg" width="64" height="64"><path d="m59.742 17.992 1.2-1.172-22.669 7.34-1.761 5.23Zm-29.746 8.125-14.457.531a4.884 4.884 0 0 0-.43-.511c-2.015-2.098-5.554-2.38-8.402-.676-1.582.945-2.758 2.367-3.309 4.004-.57 1.691-.418 3.41.442 4.832.21.351.46.683.75.98 1.543 1.598 3.973 2.149 6.308 1.547a1.552 1.552 0 0 0 2.457.41 1.55 1.55 0 0 0 .34-1.754c1.23-.921 2.137-2.148 2.606-3.53.32-.942.402-1.895.273-2.798l11.668.371ZM14.523 31.36c-.41 1.223-1.3 2.286-2.503 3.004-2.114 1.258-4.672 1.106-6.098-.37-.188-.2-.356-.411-.488-.641-.57-.954-.664-2.122-.274-3.286.406-1.222 1.297-2.285 2.496-3 2.11-1.261 4.676-1.109 6.098.372.184.19.351.41.484.64.586.953.68 2.117.285 3.281Zm0 0" style="stroke:none;fill-rule:nonzero;fill:#bca858;fill-opacity:1"/><path d="M32.902 63.129c.098-.402-1.554-4.902.043-6.629a7.98 7.98 0 0 0 1.77-1.934c1.808-2.785 1.664-6.324-.36-8.421-.058-.06-.117-.102-.171-.16l.984-16.383L44.883.64 43.39 2.559 29.645 29.152l2.293 2.489-.872 12.863a6.14 6.14 0 0 0-2.476.226c-1.66.493-3.125 1.606-4.13 3.157-1.812 2.781-1.655 6.32.36 8.422.282.285.606.554.946.773a5.534 5.534 0 0 0 2.566.863c2.254 1.012 2.402 4.133 2.668 4.782.281.66 1.793.824 1.902.402ZM32.09 29.19a.987.987 0 0 1 .023-1.382.98.98 0 0 1 1.36 1.414.98.98 0 0 1-1.383-.032Zm-2.035 26.73c-1.18.352-2.344.208-3.27-.394a3.58 3.58 0 0 1-.62-.511c-1.423-1.48-1.481-4.051-.142-6.106.762-1.18 1.864-2.015 3.098-2.383 1.176-.351 2.34-.203 3.27.399.222.144.433.32.62.515 1.423 1.48 1.477 4.047.141 6.114-.77 1.16-1.863 2.011-3.097 2.367Zm0 0" style="stroke:none;fill-rule:nonzero;fill:#bca858;fill-opacity:1"/></svg>